<?xml version="1.0" encoding="UTF-8" standalone="no"?>
<svg
   xmlns:dc="http://purl.org/dc/elements/1.1/"
   xmlns:cc="http://creativecommons.org/ns#"
   xmlns:rdf="http://www.w3.org/1999/02/22-rdf-syntax-ns#"
   xmlns:svg="http://www.w3.org/2000/svg"
   xmlns="http://www.w3.org/2000/svg"
   xmlns:sodipodi="http://sodipodi.sourceforge.net/DTD/sodipodi-0.dtd"
   xmlns:inkscape="http://www.inkscape.org/namespaces/inkscape"
   viewBox="0 0 1024 1024"
   version="1.1"
   id="svg98969"
   sodipodi:docname="kosmos.svg"
   inkscape:version="0.92.4 (5da689c313, 2019-01-14)"
   width="1024"
   height="1024">
  <metadata
     id="metadata98973">
    <rdf:RDF>
      <cc:Work
         rdf:about="">
        <dc:format>image/svg+xml</dc:format>
        <dc:type
           rdf:resource="http://purl.org/dc/dcmitype/StillImage" />
        <dc:title>iOS icon Grid</dc:title>
      </cc:Work>
    </rdf:RDF>
  </metadata>
  <sodipodi:namedview
     pagecolor="#ffffff"
     bordercolor="#666666"
     borderopacity="1"
     objecttolerance="10"
     gridtolerance="10"
     guidetolerance="10"
     inkscape:pageopacity="0"
     inkscape:pageshadow="2"
     inkscape:window-width="1920"
     inkscape:window-height="1012"
     id="namedview98971"
     showgrid="false"
     inkscape:zoom="0.32502743"
     inkscape:cx="896.52959"
     inkscape:cy="674.42894"
     inkscape:window-x="0"
     inkscape:window-y="32"
     inkscape:window-maximized="1"
     inkscape:current-layer="svg98969" />
  <defs
     id="defs98929">
    <style
       id="style98927">.cls-1{fill:#020202;}</style>
    <radialGradient
       gradientUnits="userSpaceOnUse"
       r="120.9285"
       cy="278.41739"
       cx="714.64569"
       id="SVGID_5_"
       gradientTransform="matrix(0.09197738,0,0,0.09197738,-43.714902,-37.941231)">
      <stop
         id="stop94374"
         style="stop-color:#94FDFF"
         offset="0.1333" />
      <stop
         id="stop94376"
         style="stop-color:#92FAFC;stop-opacity:0.8013"
         offset="0.3055" />
      <stop
         id="stop94378"
         style="stop-color:#8DF1F3;stop-opacity:0.667"
         offset="0.4219" />
      <stop
         id="stop94380"
         style="stop-color:#84E2E4;stop-opacity:0.5517"
         offset="0.5218" />
      <stop
         id="stop94382"
         style="stop-color:#78CDCF;stop-opacity:0.4472"
         offset="0.6124" />
      <stop
         id="stop94384"
         style="stop-color:#68B1B3;stop-opacity:0.3499"
         offset="0.6968" />
      <stop
         id="stop94386"
         style="stop-color:#548F90;stop-opacity:0.2579"
         offset="0.7765" />
      <stop
         id="stop94388"
         style="stop-color:#3C6768;stop-opacity:0.1702"
         offset="0.8525" />
      <stop
         id="stop94390"
         style="stop-color:#213839;stop-opacity:8.578235e-02"
         offset="0.9257" />
      <stop
         id="stop94392"
         style="stop-color:#030505;stop-opacity:6.696701e-03"
         offset="0.9942" />
      <stop
         id="stop94394"
         style="stop-color:#000000;stop-opacity:0"
         offset="1" />
    </radialGradient>
  </defs>
  <title
     id="title98931">iOS icon Grid</title>
  <g
     id="g1004">
    <g
       inkscape:export-ydpi="96"
       inkscape:export-xdpi="96"
       inkscape:export-filename="/home/joao/Documentos/Webstrucs/Works/Projects/Design/icons/kosmos.png"
       transform="matrix(25.089169,0,0,25.089171,-45.04765,821.2881)"
       id="g96224">
      <circle
         id="circle94397"
         r="11.120066"
         cy="-12.334728"
         cx="22.012131"
         style="fill:url(#SVGID_5_);stroke-width:0.09197738" />
      <path
         id="path94399"
         d="m 38.347316,-5.4272268 c -11.313217,-3.982621 -12.27898,-3.78027 -5.362281,4.221762 -7.919252,-7.008677 -8.149196,-6.052112 -4.295343,5.3070944 C 23.529761,-6.7333058 22.701964,-7.2575768 21.910959,3.2922287 21.29471,-7.2667748 20.457716,-6.7425038 15.123028,4.0004545 c 3.982621,-11.3132173 3.78027,-12.2789803 -4.221762,-5.3622813 7.008677,-7.919252 4.442508,-7.44097 -6.9258964,-3.596316 10.8349354,-5.1599312 12.9688104,-6.6959532 2.428202,-7.4869582 10.5590044,-0.616249 10.0347334,-1.453243 -0.708225,-6.787931 11.3132174,3.982621 12.2789804,3.78027 5.3622814,-4.221762 7.919252,7.008677 8.149196,6.052112 4.295343,-5.307094 5.159931,10.834935 5.987728,11.359206 6.778733,0.8094 0.616249,10.559004 1.453243,10.034733 6.787931,-0.708225 -3.982621,11.313217 -3.78027,12.27898 4.221762,5.362281 -7.008677,7.919252 -4.074598,7.321399 7.293806,3.467547 -10.834935,5.159931 -13.33672,6.815524 -2.796112,7.615727 -10.559004,0.607051 -10.034733,1.444045 0.708225,6.7879312 z"
         inkscape:connector-curvature="0"
         style="fill:#4a226f;fill-opacity:1;stroke-width:0.09197738" />
      <path
         id="path94401"
         d="M 36.765305,-8.8119948 C 24.348359,-11.451746 23.952856,-11.295384 32.837871,-4.4982558 23.603342,-10.807904 23.575749,-10.394006 29.958979,0.57889622 23.060676,-10.072085 22.665173,-10.237644 24.127613,0.85482822 22.076518,-10.136469 21.754597,-9.8605368 18.498598,2.4092458 c 2.639751,-12.4169468 2.483389,-12.8124488 -4.313739,-3.9274346 6.309648,-9.2345282 5.89575,-9.2621222 -5.0771524,-2.878892 10.6509814,-6.8983032 10.8165404,-7.2938062 -0.275932,-5.8313652 10.9912974,-2.051096 10.7153654,-2.373017 -1.554418,-5.629016 12.4169474,2.639751 12.8124504,2.483389 3.9274354,-4.313739 9.234529,6.309648 9.262122,5.89575 2.878892,-5.077152 6.898303,10.650981 7.293806,10.81654 5.831365,-0.275932 2.051096,10.991297 2.373017,10.715365 5.629016,-1.554417 -2.639751,12.416946 -2.483389,12.812449 4.313739,3.927434 -6.309648,9.234529 -5.89575,9.262122 5.077152,2.878892 -10.650981,6.898303 -10.81654,7.293806 0.275932,5.831366 -11.000495,2.060293 -10.724563,2.373016 1.554417,5.6290152 z"
         inkscape:connector-curvature="0"
         style="fill:#7715a6;fill-opacity:1;stroke-width:0.09197738" />
      <path
         id="path94403"
         d="m 32.010075,-12.334728 c -8.369942,0.211548 -8.590687,0.367909 -1.857943,3.3663722 -6.889106,-2.6305532 -6.843117,-2.3546212 -1.066938,3.69749 -6.052111,-5.7761792 -6.328043,-5.8221682 -3.69749,1.066938 -2.998463,-6.7327442 -3.164022,-6.5028012 -3.366373,1.857943 -0.211547,-8.3699422 -0.367909,-8.5906872 -3.366372,-1.857943 2.630553,-6.8891062 2.354621,-6.8431172 -3.69749,-1.066938 5.776179,-6.0521112 5.822168,-6.3280432 -1.066938,-3.69749 6.732744,-2.9984632 6.502801,-3.1640222 -1.857943,-3.3663722 8.369942,-0.211548 8.590687,-0.36791 1.857943,-3.366373 6.889106,2.630554 6.843117,2.354621 1.066938,-3.69749 6.052111,5.776179 6.328043,5.822168 3.69749,-1.066938 2.998463,6.732744 3.164022,6.502801 3.366372,-1.857943 0.211548,8.369942 0.36791,8.590687 3.366373,1.857943 -2.630553,6.889106 -2.354621,6.843117 3.69749,1.066938 -5.776179,6.052111 -5.822168,6.328044 1.066938,3.69749 -6.732744,2.998463 -6.511999,3.164022 1.857943,3.366373 z"
         inkscape:connector-curvature="0"
         style="fill:#681f7c;fill-opacity:1;stroke-width:0.09197738" />
    </g>
    <rect
       inkscape:export-ydpi="96"
       inkscape:export-xdpi="96"
       inkscape:export-filename="/home/joao/Documentos/Webstrucs/Works/Projects/Design/icons/kosmos.png"
       y="-0.06451416"
       x="0.064536214"
       height="1024"
       width="1024"
       id="rect99092"
       style="fill:none;fill-opacity:1;stroke:none;stroke-width:1.00253975;stroke-miterlimit:4;stroke-dasharray:none;stroke-opacity:1" />
  </g>
</svg>
